<svg width="54" height="54" viewBox="0 0 54 54" fill="none" xmlns="http://www.w3.org/2000/svg">
<path d="M11.4449 13.7112C9.10404 16.1138 7.40461 19.1335 6.58685 22.5015" stroke="#3AC67F" stroke-width="2" stroke-linecap="round" stroke-linejoin="round"/>
<path d="M21.0399 45.61C22.3425 45.8921 23.6937 46.0486 25.0824 46.0486C27.0485 46.0486 28.9463 45.7489 30.7317 45.1956" stroke="#3AC67F" stroke-width="2" stroke-linecap="round" stroke-linejoin="round"/>
<path d="M6.58899 31.4985C7.40675 34.8665 9.10618 37.8863 11.447 40.2889" stroke="#3AC67F" stroke-width="2" stroke-linecap="round" stroke-linejoin="round"/>
<path d="M43.3353 32.4312C42.4118 35.5435 40.7057 38.3142 38.4597 40.5382" stroke="#3AC67F" stroke-width="2" stroke-linecap="round" stroke-linejoin="round"/>
<path d="M38.4597 13.4619C40.7057 15.6859 42.4096 18.4566 43.3353 21.5689" stroke="#3AC67F" stroke-width="2" stroke-linecap="round" stroke-linejoin="round"/>
<path d="M21.0399 8.38986C22.3425 8.10772 23.6937 7.95122 25.0824 7.95122C27.0485 7.95122 28.9463 8.25099 30.7317 8.80424" stroke="#3AC67F" stroke-width="2" stroke-linecap="round" stroke-linejoin="round"/>
<path d="M48.0275 23.1032C50.1795 25.2552 50.1795 28.7443 48.0275 30.8962C45.8755 33.0482 42.3864 33.0482 40.2345 30.8962C38.0825 28.7443 38.0825 25.2552 40.2345 23.1032C42.3864 20.9513 45.8755 20.9513 48.0275 23.1032" stroke="#3AC67F" stroke-width="2" stroke-linecap="round" stroke-linejoin="round"/>
<path d="M20.0187 39.2761C22.1707 41.4281 22.1707 44.9171 20.0187 47.0691C17.8668 49.2211 14.3777 49.2211 12.2257 47.0691C10.0738 44.9171 10.0738 41.4281 12.2257 39.2761C14.3777 37.1241 17.8668 37.1241 20.0187 39.2761" stroke="#3AC67F" stroke-width="2" stroke-linecap="round" stroke-linejoin="round"/>
<path d="M20.0187 6.93112C22.1707 9.08311 22.1707 12.5721 20.0187 14.7241C17.8668 16.8761 14.3777 16.8761 12.2257 14.7241C10.0738 12.5721 10.0738 9.0831 12.2257 6.93112C14.3777 4.77914 17.8668 4.77914 20.0187 6.93112" stroke="#3AC67F" stroke-width="2" stroke-linecap="round" stroke-linejoin="round"/>
</svg>
