<svg fill="none" height="53" viewBox="0 0 53 53" width="53" xmlns="http://www.w3.org/2000/svg"><g stroke="#3ac67f" stroke-linecap="round" stroke-linejoin="round" stroke-width="2.10519"><path d="m30.31 24.6408c2.1262 2.1262 2.1262 5.5734 0 7.6996s-5.5734 2.1262-7.6996 0-2.1262-5.5734 0-7.6996 5.5734-2.1262 7.6996 0"/><path d="m42.2574 11.5741c2.1262 2.1262 2.1262 5.5735 0 7.6997s-5.5734 2.1262-7.6996 0-2.1262-5.5735 0-7.6997c2.1262-2.12616 5.5734-2.12616 7.6996 0"/><path d="m39.5269 27.4016c3.3385 0 6.5333 1.1608 8.7111 2.903"/><path d="m18.3626 11.5741c2.1262 2.1262 2.1262 5.5735 0 7.6997s-5.5734 2.1262-7.6996 0c-2.12619-2.1262-2.12619-5.5735 0-7.6997 2.1262-2.12616 5.5734-2.12616 7.6996 0"/><path d="m4.68231 30.3046c2.17779-1.7422 5.37259-2.903 8.71119-2.903"/><path d="m36.4584 43.7352c-2.5372-1.9622-6.1828-3.2667-9.9983-3.2667-3.8154 0-7.4611 1.3045-9.9982 3.2667"/></g></svg>