<svg width="52" height="48" viewBox="0 0 52 48" fill="none" xmlns="http://www.w3.org/2000/svg">
<path d="M25.4602 12.6399V15.597" stroke="#3AC67F" stroke-width="2" stroke-linecap="round" stroke-linejoin="round"/>
<path d="M25.4602 36.2966V33.3395" stroke="#3AC67F" stroke-width="2" stroke-linecap="round" stroke-linejoin="round"/>
<path d="M31.3437 19.7369C31.1899 17.428 29.2855 15.5969 26.9388 15.5969H23.6978C21.4031 15.5969 19.546 17.4564 19.546 19.7487C19.546 21.6531 20.8424 23.3138 22.6876 23.7775L28.2304 25.1685C30.078 25.6322 31.3721 27.2929 31.3721 29.1972C31.3721 31.492 29.5126 33.349 27.2203 33.349H23.9793C21.6278 33.349 19.7234 31.5133 19.572 29.1996" stroke="#3AC67F" stroke-width="2" stroke-linecap="round" stroke-linejoin="round"/>
<path d="M11.5503 9.97132C15.2621 6.25956 20.3909 3.96484 26.0567 3.96484C37.3859 3.96484 46.5719 13.1461 46.5719 24.4706C46.5719 26.0509 46.3755 27.5838 46.0372 29.0624" stroke="#3AC67F" stroke-width="2" stroke-linecap="round" stroke-linejoin="round"/>
<path d="M42.8645 25.8925L46.5715 29.5995L50.2786 25.8925" stroke="#3AC67F" stroke-width="2" stroke-linecap="round" stroke-linejoin="round"/>
<path d="M40.5532 38.965C36.8415 42.6767 31.7126 44.9715 26.0468 44.9715C14.7176 44.9715 5.53162 35.7902 5.53162 24.4657C5.53162 22.8854 5.72797 21.3525 6.06626 19.8739" stroke="#3AC67F" stroke-width="2" stroke-linecap="round" stroke-linejoin="round"/>
<path d="M9.23876 23.0442L5.53174 19.3372L1.82471 23.0442" stroke="#3AC67F" stroke-width="2" stroke-linecap="round" stroke-linejoin="round"/>
</svg>
